<?xml version="1.0"?>
<svg xmlns="http://www.w3.org/2000/svg" id="Layer_1" data-name="Layer 1" viewBox="0 0 512 512" width="512px" height="512px" class=""><g><title class="active-path" style="fill:#079F3C" data-old_color="#08762E">b2</title><path d="M223.86,333.649a229.4,229.4,0,0,0,70.906-11.159,106.015,106.015,0,0,1,120.183-91.061,230.294,230.294,0,0,0,13.925-23.78,229.771,229.771,0,0,0-410.029,0,230.351,230.351,0,0,0,81.9,90.255A228.964,228.964,0,0,0,223.86,333.649Zm1.323-218.01a92.011,92.011,0,1,1-92.011,92.01A92.114,92.114,0,0,1,225.183,115.639Z" data-original="#000000" class="active-path" data-old_color="#08762E" fill="#079F3C"/><path d="M225.183,287.66a80.011,80.011,0,1,0-80.011-80.011A80.1,80.1,0,0,0,225.183,287.66ZM182.691,164a58.611,58.611,0,0,1,60.255-14.251,6,6,0,0,1,1.971,10.284c-.5.418-.948.829-1.34,1.222a20.457,20.457,0,0,0,28.5,29.351,6,6,0,0,1,10,3.149A58.93,58.93,0,1,1,182.691,164Z" data-original="#000000" class="active-path" data-old_color="#08762E" fill="#079F3C"/><path d="M399.86,242.351a94,94,0,1,0,94,94A94.106,94.106,0,0,0,399.86,242.351Zm44.191,73.179-51.445,50.227a6,6,0,0,1-8.383,0l-28.555-27.879a6,6,0,1,1,8.383-8.586l24.364,23.786,47.253-46.134a6,6,0,1,1,8.383,8.586Z" data-original="#000000" class="active-path" data-old_color="#08762E" fill="#079F3C"/><path d="M257.546,238.851A46.8,46.8,0,0,0,271.3,205.4a32.5,32.5,0,0,1-41.139-46.316,46.936,46.936,0,1,0,27.39,79.771Z" data-original="#000000" class="active-path" data-old_color="#08762E" fill="#079F3C"/></g> </svg>
