<?xml version="1.0"?>
<svg xmlns="http://www.w3.org/2000/svg" id="Layer_1" data-name="Layer 1" viewBox="0 0 512 512" width="512px" height="512px" class=""><g><title class="active-path" style="fill:#FAFDFD" data-old_color="#F4F9F9">a2</title><path d="M278,189.238a6,6,0,0,0-5.926,1.364,20.457,20.457,0,0,1-28.5-29.351c.392-.393.843-.8,1.34-1.222a6,6,0,0,0-1.971-10.284,58.928,58.928,0,1,0,39.128,44.006A6,6,0,0,0,278,189.238Zm-20.454,49.613a46.993,46.993,0,1,1-27.39-79.771A32.5,32.5,0,0,0,271.3,205.4,46.8,46.8,0,0,1,257.546,238.851Z" data-original="#000000" class="active-path" data-old_color="#F4F9F9" fill="#EBF2F1"/><path d="M225.183,115.639a92.011,92.011,0,1,0,92.011,92.01A92.114,92.114,0,0,0,225.183,115.639Zm0,172.021a80.011,80.011,0,1,1,80.011-80.011A80.1,80.1,0,0,1,225.183,287.66Z" data-original="#000000" class="active-path" data-old_color="#F4F9F9" fill="#EBF2F1"/><path d="M427.588,234.038a242.139,242.139,0,0,0,13.378-23.746,6,6,0,0,0,0-5.285,241.773,241.773,0,0,0-434.211,0,6,6,0,0,0,0,5.285A242.346,242.346,0,0,0,94.3,308.029a242.257,242.257,0,0,0,199.57,27.314c0,.336-.012.671-.012,1.008A106,106,0,1,0,427.588,234.038ZM223.86,333.649A228.964,228.964,0,0,1,100.743,297.9a230.351,230.351,0,0,1-81.9-90.255,229.77,229.77,0,0,1,410.029,0,230.294,230.294,0,0,1-13.925,23.78A106.015,106.015,0,0,0,294.766,322.49,229.4,229.4,0,0,1,223.86,333.649Zm176,96.7a94,94,0,1,1,94-94A94.108,94.108,0,0,1,399.86,430.351Z" data-original="#000000" class="active-path" data-old_color="#F4F9F9" fill="#EBF2F1"/><path d="M435.668,306.944l-47.253,46.134-24.364-23.786a6,6,0,1,0-8.383,8.586l28.555,27.879a6,6,0,0,0,8.383,0l51.445-50.227a6,6,0,1,0-8.383-8.586Z" data-original="#000000" class="active-path" data-old_color="#F4F9F9" fill="#EBF2F1"/></g> </svg>
